<svg width="1413" height="945" viewBox="0 0 1413 945" fill="none" xmlns="http://www.w3.org/2000/svg">
<path d="M65.3764 428.172C64.9124 423.83 62.9569 420.449 59.5099 418.03C56.0961 415.61 51.6548 414.401 46.1861 414.401C42.3414 414.401 39.0436 414.981 36.2926 416.141C33.5417 417.301 31.437 418.875 29.9787 420.864C28.5204 422.852 27.7746 425.123 27.7415 427.675C27.7415 429.796 28.2221 431.635 29.1832 433.193C30.1776 434.751 31.5199 436.077 33.2102 437.17C34.9006 438.231 36.7732 439.126 38.8281 439.855C40.8831 440.584 42.9545 441.197 45.0426 441.695L54.5881 444.081C58.4328 444.976 62.1283 446.186 65.6747 447.71C69.2543 449.235 72.4527 451.157 75.2699 453.477C78.1203 455.797 80.3741 458.598 82.0312 461.879C83.6884 465.161 84.517 469.005 84.517 473.413C84.517 479.379 82.9924 484.633 79.9432 489.173C76.8939 493.681 72.4858 497.211 66.7188 499.763C60.9848 502.282 54.0412 503.541 45.8878 503.541C37.9664 503.541 31.089 502.315 25.2557 499.862C19.4555 497.41 14.9148 493.83 11.6335 489.124C8.38542 484.417 6.62879 478.683 6.36364 471.922H24.5099C24.7751 475.468 25.8688 478.418 27.7912 480.771C29.7135 483.125 32.2159 484.881 35.2983 486.041C38.4138 487.201 41.8939 487.781 45.7386 487.781C49.7491 487.781 53.2623 487.185 56.2784 485.991C59.3277 484.765 61.714 483.075 63.4375 480.92C65.161 478.733 66.0393 476.181 66.0724 473.264C66.0393 470.613 65.2604 468.425 63.7358 466.702C62.2112 464.945 60.0734 463.487 57.3224 462.327C54.6046 461.134 51.4228 460.073 47.777 459.145L36.1932 456.162C27.8078 454.008 21.179 450.743 16.3068 446.368C11.4678 441.96 9.0483 436.11 9.0483 428.818C9.0483 422.819 10.6723 417.566 13.9205 413.058C17.2017 408.551 21.6596 405.054 27.294 402.568C32.9285 400.049 39.3087 398.79 46.4347 398.79C53.66 398.79 59.9905 400.049 65.4261 402.568C70.8949 405.054 75.187 408.518 78.3026 412.959C81.4181 417.367 83.0256 422.438 83.125 428.172H65.3764ZM133.972 503.491C126.316 503.491 119.703 501.901 114.135 498.719C108.6 495.504 104.341 490.963 101.358 485.097C98.3754 479.197 96.8839 472.253 96.8839 464.266C96.8839 456.411 98.3754 449.517 101.358 443.584C104.374 437.618 108.584 432.978 113.986 429.663C119.389 426.316 125.736 424.642 133.027 424.642C137.734 424.642 142.175 425.404 146.351 426.929C150.56 428.42 154.273 430.741 157.488 433.889C160.736 437.038 163.288 441.048 165.144 445.92C167 450.759 167.928 456.527 167.928 463.222V468.74H105.336V456.609H150.676C150.643 453.162 149.898 450.097 148.439 447.412C146.981 444.694 144.943 442.556 142.324 440.999C139.739 439.441 136.723 438.662 133.276 438.662C129.597 438.662 126.365 439.557 123.581 441.347C120.797 443.103 118.626 445.423 117.069 448.307C115.544 451.157 114.765 454.289 114.732 457.703V468.293C114.732 472.734 115.544 476.545 117.168 479.727C118.792 482.876 121.062 485.295 123.979 486.986C126.896 488.643 130.31 489.472 134.221 489.472C136.839 489.472 139.209 489.107 141.33 488.378C143.451 487.616 145.291 486.505 146.848 485.047C148.406 483.589 149.583 481.782 150.378 479.628L167.182 481.517C166.122 485.958 164.1 489.836 161.117 493.151C158.167 496.432 154.389 498.984 149.782 500.807C145.175 502.597 139.905 503.491 133.972 503.491ZM216.463 503.491C208.84 503.491 202.294 501.818 196.825 498.47C191.39 495.123 187.197 490.499 184.247 484.599C181.33 478.667 179.872 471.839 179.872 464.116C179.872 456.361 181.364 449.517 184.347 443.584C187.33 437.618 191.539 432.978 196.974 429.663C202.443 426.316 208.906 424.642 216.364 424.642C222.562 424.642 228.047 425.786 232.82 428.072C237.625 430.326 241.454 433.525 244.304 437.668C247.154 441.777 248.778 446.583 249.176 452.085H231.974C231.278 448.406 229.621 445.34 227.003 442.888C224.418 440.402 220.954 439.159 216.612 439.159C212.933 439.159 209.702 440.153 206.918 442.142C204.134 444.098 201.963 446.915 200.405 450.594C198.88 454.273 198.118 458.681 198.118 463.818C198.118 469.022 198.88 473.496 200.405 477.241C201.929 480.954 204.067 483.821 206.818 485.842C209.602 487.831 212.867 488.825 216.612 488.825C219.264 488.825 221.634 488.328 223.722 487.334C225.843 486.306 227.616 484.831 229.041 482.909C230.466 480.987 231.444 478.65 231.974 475.899H249.176C248.745 481.302 247.154 486.091 244.403 490.267C241.652 494.41 237.907 497.658 233.168 500.011C228.428 502.331 222.86 503.491 216.463 503.491ZM312.626 469.884V425.636H330.623V502H313.173V488.428H312.377C310.654 492.703 307.82 496.2 303.876 498.918C299.965 501.635 295.143 502.994 289.409 502.994C284.404 502.994 279.979 501.884 276.135 499.663C272.323 497.41 269.34 494.145 267.186 489.869C265.031 485.561 263.954 480.357 263.954 474.259V425.636H281.951V471.474C281.951 476.313 283.277 480.158 285.929 483.009C288.58 485.859 292.06 487.284 296.369 487.284C299.02 487.284 301.589 486.638 304.075 485.345C306.561 484.053 308.599 482.13 310.19 479.578C311.814 476.993 312.626 473.761 312.626 469.884ZM349.13 502V425.636H366.58V438.364H367.376C368.768 433.955 371.154 430.558 374.535 428.172C377.949 425.752 381.843 424.543 386.218 424.543C387.212 424.543 388.323 424.592 389.549 424.692C390.808 424.758 391.853 424.874 392.681 425.04V441.595C391.919 441.33 390.709 441.098 389.052 440.899C387.428 440.667 385.853 440.551 384.329 440.551C381.048 440.551 378.098 441.264 375.479 442.689C372.894 444.081 370.856 446.02 369.364 448.506C367.873 450.991 367.127 453.858 367.127 457.107V502H349.13ZM435.3 503.491C427.644 503.491 421.032 501.901 415.463 498.719C409.928 495.504 405.669 490.963 402.686 485.097C399.703 479.197 398.212 472.253 398.212 464.266C398.212 456.411 399.703 449.517 402.686 443.584C405.703 437.618 409.912 432.978 415.314 429.663C420.717 426.316 427.064 424.642 434.355 424.642C439.062 424.642 443.503 425.404 447.679 426.929C451.889 428.42 455.601 430.741 458.816 433.889C462.064 437.038 464.616 441.048 466.472 445.92C468.328 450.759 469.256 456.527 469.256 463.222V468.74H406.664V456.609H452.005C451.971 453.162 451.226 450.097 449.767 447.412C448.309 444.694 446.271 442.556 443.652 440.999C441.067 439.441 438.051 438.662 434.604 438.662C430.925 438.662 427.694 439.557 424.909 441.347C422.125 443.103 419.954 445.423 418.397 448.307C416.872 451.157 416.093 454.289 416.06 457.703V468.293C416.06 472.734 416.872 476.545 418.496 479.727C420.12 482.876 422.391 485.295 425.307 486.986C428.224 488.643 431.638 489.472 435.549 489.472C438.167 489.472 440.537 489.107 442.658 488.378C444.779 487.616 446.619 486.505 448.176 485.047C449.734 483.589 450.911 481.782 451.706 479.628L468.51 481.517C467.45 485.958 465.428 489.836 462.445 493.151C459.495 496.432 455.717 498.984 451.11 500.807C446.503 502.597 441.233 503.491 435.3 503.491ZM485.277 502V400.182H523.459C531.281 400.182 537.843 401.541 543.146 404.259C548.482 406.976 552.509 410.788 555.227 415.693C557.978 420.565 559.354 426.25 559.354 432.746C559.354 439.275 557.962 444.943 555.178 449.749C552.427 454.521 548.366 458.217 542.997 460.835C537.628 463.42 531.032 464.713 523.21 464.713H496.016V449.401H520.724C525.298 449.401 529.044 448.771 531.96 447.511C534.877 446.219 537.031 444.346 538.423 441.893C539.848 439.408 540.561 436.358 540.561 432.746C540.561 429.133 539.848 426.051 538.423 423.499C536.998 420.913 534.827 418.958 531.911 417.632C528.994 416.273 525.232 415.594 520.625 415.594H503.722V502H485.277ZM537.876 455.864L563.082 502H542.5L517.741 455.864H537.876ZM576.332 502V400.182H614.513C622.335 400.182 628.898 401.64 634.201 404.557C639.537 407.473 643.564 411.484 646.282 416.588C649.033 421.659 650.408 427.426 650.408 433.889C650.408 440.419 649.033 446.219 646.282 451.29C643.531 456.361 639.471 460.355 634.102 463.271C628.732 466.155 622.12 467.597 614.265 467.597H588.96V452.433H611.779C616.353 452.433 620.098 451.638 623.015 450.047C625.932 448.456 628.086 446.268 629.478 443.484C630.903 440.7 631.616 437.502 631.616 433.889C631.616 430.277 630.903 427.095 629.478 424.344C628.086 421.593 625.915 419.455 622.965 417.93C620.049 416.373 616.287 415.594 611.68 415.594H594.776V502H576.332ZM753.581 434.536H734.988C734.457 431.486 733.48 428.785 732.054 426.432C730.629 424.045 728.856 422.024 726.735 420.366C724.614 418.709 722.194 417.466 719.476 416.638C716.792 415.776 713.891 415.345 710.776 415.345C705.241 415.345 700.336 416.737 696.06 419.521C691.784 422.272 688.437 426.316 686.017 431.652C683.598 436.955 682.388 443.435 682.388 451.091C682.388 458.88 683.598 465.442 686.017 470.778C688.47 476.081 691.818 480.092 696.06 482.81C700.336 485.494 705.224 486.837 710.726 486.837C713.775 486.837 716.626 486.439 719.277 485.643C721.962 484.815 724.365 483.605 726.486 482.014C728.641 480.423 730.447 478.468 731.905 476.148C733.397 473.828 734.424 471.176 734.988 468.193L753.581 468.293C752.885 473.132 751.377 477.672 749.057 481.915C746.77 486.157 743.771 489.902 740.059 493.151C736.346 496.366 732.005 498.884 727.033 500.707C722.061 502.497 716.543 503.392 710.478 503.392C701.529 503.392 693.541 501.321 686.515 497.178C679.488 493.035 673.953 487.052 669.909 479.23C665.866 471.408 663.844 462.028 663.844 451.091C663.844 440.12 665.882 430.741 669.959 422.952C674.036 415.13 679.587 409.147 686.614 405.004C693.641 400.861 701.595 398.79 710.478 398.79C716.145 398.79 721.415 399.585 726.287 401.176C731.159 402.767 735.501 405.104 739.313 408.186C743.124 411.235 746.257 414.981 748.709 419.422C751.195 423.83 752.819 428.868 753.581 434.536Z" fill="#2188FF"/>
<rect x="1201" width="48" height="48" rx="6" fill="#032F62"/>
<rect x="1201" y="60" width="48" height="48" rx="6" fill="#24292E"/>
<rect x="1201" y="120" width="48" height="48" rx="6" fill="#24292E"/>
<rect x="1201" y="180" width="48" height="48" rx="6" fill="#005CC5"/>
<rect x="901" y="720" width="48" height="48" rx="6" fill="#005CC5"/>
<rect x="1201" y="300" width="48" height="48" rx="6" fill="#24292E"/>
<rect x="901" y="840" width="48" height="48" rx="6" fill="#24292E"/>
<rect x="1201" y="360" width="48" height="48" rx="6" fill="#24292E"/>
<rect x="901" y="900" width="48" height="48" rx="6" fill="#24292E"/>
<rect x="1201" y="540" width="48" height="48" rx="6" fill="#24292E"/>
<rect x="1201" y="600" width="48" height="48" rx="6" fill="#24292E"/>
<rect x="541" y="840" width="48" height="48" rx="6" fill="#24292E"/>
<rect x="1201" y="660" width="48" height="48" rx="6" fill="#005CC5"/>
<rect x="1201" y="720" width="48" height="48" rx="6" fill="#032F62"/>
<rect x="1201" y="780" width="48" height="48" rx="6" fill="#24292E"/>
<rect x="1201" y="840" width="48" height="48" rx="6" fill="#24292E"/>
<rect x="961" y="120" width="48" height="48" rx="6" fill="#005CC5"/>
<rect x="661" y="780" width="48" height="48" rx="6" fill="#24292E"/>
<rect x="961" y="360" width="48" height="48" rx="6" fill="#032F62"/>
<rect x="661" y="900" width="48" height="48" rx="6" fill="#032F62"/>
<rect x="961" y="480" width="48" height="48" rx="6" fill="#24292E"/>
<rect x="961" y="540" width="48" height="48" rx="6" fill="#005CC5"/>
<rect x="961" y="660" width="48" height="48" rx="6" fill="#24292E"/>
<rect x="301" y="900" width="48" height="48" rx="6" fill="#24292E"/>
<rect x="961" y="720" width="48" height="48" rx="6" fill="#24292E"/>
<rect x="961" y="780" width="48" height="48" rx="6" fill="#032F62"/>
<rect x="1261" width="48" height="48" rx="6" fill="#24292E"/>
<rect x="1261" y="120" width="48" height="48" rx="6" fill="#24292E"/>
<rect x="1261" y="180" width="48" height="48" rx="6" fill="#032F62"/>
<rect x="1261" y="300" width="48" height="48" rx="6" fill="#24292E"/>
<rect x="1261" y="420" width="48" height="48" rx="6" fill="#24292E"/>
<rect x="1261" y="540" width="48" height="48" rx="6" fill="#005CC5"/>
<rect x="1021" y="600" width="48" height="48" rx="6" fill="#24292E"/>
<rect x="601" y="840" width="48" height="48" rx="6" fill="#24292E"/>
<rect x="601" y="900" width="48" height="48" rx="6" fill="#24292E"/>
<rect x="1261" y="720" width="48" height="48" rx="6" fill="#24292E"/>
<rect x="1261" y="840" width="48" height="48" rx="6" fill="#24292E"/>
<rect x="1261" y="900" width="48" height="48" rx="6" fill="#005CC5"/>
<rect x="1021" y="180" width="48" height="48" rx="6" fill="#032F62"/>
<rect x="1021" y="240" width="48" height="48" rx="6" fill="#24292E"/>
<rect x="721" y="780" width="48" height="48" rx="6" fill="#24292E"/>
<rect x="721" y="900" width="48" height="48" rx="6" fill="#032F62"/>
<rect x="361" y="840" width="48" height="48" rx="6" fill="#24292E"/>
<rect x="1021" y="660" width="48" height="48" rx="6" fill="#032F62"/>
<rect x="1021" y="720" width="48" height="48" rx="6" fill="#24292E"/>
<rect x="1021" y="840" width="48" height="48" rx="6" fill="#24292E"/>
<rect x="1021" y="900" width="48" height="48" rx="6" fill="#24292E"/>
<rect x="1321" y="60" width="48" height="48" rx="6" fill="#24292E"/>
<rect x="1321" y="180" width="48" height="48" rx="6" fill="#24292E"/>
<rect x="1321" y="240" width="48" height="48" rx="6" fill="#005CC5"/>
<rect x="1321" y="360" width="48" height="48" rx="6" fill="#032F62"/>
<rect x="1321" y="420" width="48" height="48" rx="6" fill="#24292E"/>
<rect x="1321" y="480" width="48" height="48" rx="6" fill="#24292E"/>
<rect x="1321" y="660" width="48" height="48" rx="6" fill="#24292E"/>
<rect x="1321" y="720" width="48" height="48" rx="6" fill="#24292E"/>
<rect x="1321" y="780" width="48" height="48" rx="6" fill="#005CC5"/>
<rect x="1321" y="900" width="48" height="48" rx="6" fill="#032F62"/>
<rect x="1081" y="60" width="48" height="48" rx="6" fill="#005CC5"/>
<rect x="1081" y="120" width="48" height="48" rx="6" fill="#24292E"/>
<rect x="781" y="780" width="48" height="48" rx="6" fill="#032F62"/>
<rect x="1081" y="300" width="48" height="48" rx="6" fill="#24292E"/>
<rect x="781" y="840" width="48" height="48" rx="6" fill="#24292E"/>
<rect x="1081" y="360" width="48" height="48" rx="6" fill="#24292E"/>
<rect x="781" y="900" width="48" height="48" rx="6" fill="#24292E"/>
<rect x="1081" y="480" width="48" height="48" rx="6" fill="#032F62"/>
<rect x="1081" y="540" width="48" height="48" rx="6" fill="#24292E"/>
<rect x="1081" y="600" width="48" height="48" rx="6" fill="#032F62"/>
<rect x="1081" y="660" width="48" height="48" rx="6" fill="#24292E"/>
<rect x="421" y="900" width="48" height="48" rx="6" fill="#24292E"/>
<rect x="1081" y="780" width="48" height="48" rx="6" fill="#24292E"/>
<rect x="1081" y="840" width="48" height="48" rx="6" fill="#032F62"/>
<rect x="1381" width="48" height="48" rx="6" fill="#005CC5"/>
<rect x="1381" y="60" width="48" height="48" rx="6" fill="#032F62"/>
<rect x="1381" y="120" width="48" height="48" rx="6" fill="#24292E"/>
<rect x="1381" y="240" width="48" height="48" rx="6" fill="#005CC5"/>
<rect x="1381" y="300" width="48" height="48" rx="6" fill="#24292E"/>
<rect x="1381" y="360" width="48" height="48" rx="6" fill="#005CC5"/>
<rect x="1381" y="480" width="48" height="48" rx="6" fill="#24292E"/>
<rect x="1381" y="600" width="48" height="48" rx="6" fill="#24292E"/>
<rect x="1381" y="660" width="48" height="48" rx="6" fill="#032F62"/>
<rect x="1381" y="900" width="48" height="48" rx="6" fill="#24292E"/>
<rect x="1141" width="48" height="48" rx="6" fill="#24292E"/>
<rect x="1141" y="60" width="48" height="48" rx="6" fill="#032F62"/>
<rect x="1141" y="180" width="48" height="48" rx="6" fill="#24292E"/>
<rect x="841" y="720" width="48" height="48" rx="6" fill="#24292E"/>
<rect x="1141" y="240" width="48" height="48" rx="6" fill="#24292E"/>
<rect x="841" y="780" width="48" height="48" rx="6" fill="#24292E"/>
<rect x="1141" y="300" width="48" height="48" rx="6" fill="#005CC5"/>
<rect x="841" y="840" width="48" height="48" rx="6" fill="#005CC5"/>
<rect x="1141" y="420" width="48" height="48" rx="6" fill="#24292E"/>
<rect x="1141" y="480" width="48" height="48" rx="6" fill="#032F62"/>
<rect x="1141" y="540" width="48" height="48" rx="6" fill="#24292E"/>
<rect x="1141" y="660" width="48" height="48" rx="6" fill="#005CC5"/>
<rect x="481" y="900" width="48" height="48" rx="6" fill="#005CC5"/>
<rect x="1141" y="720" width="48" height="48" rx="6" fill="#24292E"/>
<rect x="1141" y="900" width="48" height="48" rx="6" fill="#005CC5"/>
</svg>
