<svg width="24" height="24" viewBox="0 0 29 32" fill="none" xmlns="http://www.w3.org/2000/svg">
<g opacity="0.5" clip-path="url(#clip0_1_2)">
<path d="M4.46154 4.92318C4.46154 3.6873 3.46279 2.68542 2.23077 2.68542C0.998748 2.68542 0 3.6873 0 4.92318C0 5.65609 0.350953 6.30548 0.892306 6.7133V15.6645C0.892306 17.04 1.84409 18.1926 3.12308 18.4957V20.5875C3.12308 26.8905 8.21667 32.0001 14.5 32.0001C20.7833 32.0001 25.8769 26.8905 25.8769 20.5875V18.4957C27.1559 18.1926 28.1076 17.04 28.1076 15.6645V6.7133C28.649 6.30548 29 5.65609 29 4.92318C29 3.6873 28.0013 2.68542 26.7692 2.68542C25.5372 2.68542 24.5385 3.6873 24.5385 4.92318C24.5385 5.52847 24.778 6.07675 25.166 6.47899L24.4987 8.38166C23.3542 6.95542 21.5994 6.04207 19.6308 6.04207H9.36923C7.40056 6.04207 5.64579 6.95542 4.50131 8.38166L3.83394 6.47899C4.22201 6.07675 4.46154 5.52847 4.46154 4.92318Z" fill="black"/>
<path d="M25.4308 4.9231C25.4308 4.18157 26.03 3.58044 26.7692 3.58044C27.5085 3.58044 28.1077 4.18157 28.1077 4.9231C28.1077 5.5077 27.7353 6.00504 27.2154 6.18938V15.6643C27.2154 16.7767 26.3165 17.6783 25.2077 17.6783H24.5385V10.9651L26.227 6.15101C25.758 5.94227 25.4308 5.47101 25.4308 4.9231Z" fill="#757575"/>
<path d="M3.56937 4.9231C3.56937 4.18157 2.97012 3.58044 2.23091 3.58044C1.4917 3.58044 0.892456 4.18157 0.892456 4.9231C0.892456 5.5077 1.26491 6.00504 1.78476 6.18938V15.6643C1.78476 16.7767 2.68363 17.6783 3.79246 17.6783H4.46169V10.9651L2.77315 6.15101C3.24221 5.94227 3.56937 5.47101 3.56937 4.9231Z" fill="#757575"/>
<path d="M4.01529 12.3077C4.01529 9.34162 6.41226 6.93707 9.36911 6.93707H19.6306C22.5875 6.93707 24.9845 9.34162 24.9845 12.3077V20.5874C24.9845 26.3961 20.2904 31.1049 14.4999 31.1049C8.70942 31.1049 4.01529 26.3961 4.01529 20.5874V12.3077Z" fill="#CCCCCC"/>
<path d="M9.81552 6.93707H19.1848V14.0979H9.81552V6.93707Z" fill="white"/>
<path d="M12.4922 6.71326H16.5075V10.965C16.5075 12.0773 15.6087 12.979 14.4998 12.979C13.3911 12.979 12.4922 12.0773 12.4922 10.965V6.71326Z" fill="#F03917"/>
<path d="M11.1538 23.4965H17.8461V25.2867H11.1538V23.4965Z" fill="black"/>
<path d="M6.02313 15.4405C6.02313 14.699 6.62238 14.0978 7.36158 14.0978H21.6385C22.3777 14.0978 22.977 14.699 22.977 15.4405V19.0209C22.977 19.7624 22.3777 20.3636 21.6385 20.3636H7.36158C6.62238 20.3636 6.02313 19.7624 6.02313 19.0209V15.4405Z" fill="black"/>
<path d="M8.25388 16.5594C8.25388 15.8178 8.85315 15.2167 9.59235 15.2167C10.3315 15.2167 10.9308 15.8178 10.9308 16.5594V17.902C10.9308 18.6436 10.3315 19.2447 9.59235 19.2447C8.85315 19.2447 8.25388 18.6436 8.25388 17.902V16.5594Z" fill="#30D2F8"/>
<path d="M18.0691 16.5594C18.0691 15.8178 18.6683 15.2167 19.4075 15.2167C20.1467 15.2167 20.746 15.8178 20.746 16.5594V17.902C20.746 18.6436 20.1467 19.2447 19.4075 19.2447C18.6683 19.2447 18.0691 18.6436 18.0691 17.902V16.5594Z" fill="#30D2F8"/>
<path d="M8.64671 29.3148C5.85282 27.4255 4.01529 24.2218 4.01529 20.5875V20.5026L8.69988 24.3917V29.3148H8.64671Z" fill="#757575"/>
<path d="M24.9845 20.5026V20.5875C24.9845 24.2218 23.1469 27.4255 20.353 29.3148H20.2999V24.3917L24.9845 20.5026Z" fill="#757575"/>
<path fill-rule="evenodd" clip-rule="evenodd" d="M9.85365 5.40904C9.59845 5.66504 9.52208 6.05004 9.6602 6.38448C9.79831 6.71897 10.1237 6.93709 10.4846 6.93709H13.4072L12.5377 9.56412C12.4074 9.95794 12.5639 10.3899 12.9159 10.6079C13.2679 10.8258 13.723 10.7725 14.0156 10.4791L19.1463 5.33225C19.4015 5.07625 19.4778 4.69125 19.3397 4.35678C19.2016 4.0223 18.8763 3.80421 18.5153 3.80421H15.5927L16.4622 1.17717C16.5925 0.783376 16.436 0.351355 16.084 0.133423C15.732 -0.0845102 15.2769 -0.0312119 14.9844 0.262189L9.85365 5.40904Z" fill="black"/>
<path d="M10.4847 6.04193L15.6155 0.895081L14.3564 4.69927H18.5155L13.3847 9.84614L14.6438 6.04193H10.4847Z" fill="#FFC93A"/>
</g>
<defs>
<clipPath id="clip0_1_2">
<rect width="29" height="32" fill="white"/>
</clipPath>
</defs>
</svg>
