<svg width="1112" height="945" viewBox="0 0 1112 945" fill="none" xmlns="http://www.w3.org/2000/svg">
<rect x="900" width="48" height="48" rx="6" fill="#032F62"/>
<rect x="900" y="60" width="48" height="48" rx="6" fill="#24292E"/>
<rect x="900" y="120" width="48" height="48" rx="6" fill="#24292E"/>
<rect x="900" y="180" width="48" height="48" rx="6" fill="#005CC5"/>
<rect x="600" y="720" width="48" height="48" rx="6" fill="#005CC5"/>
<rect x="900" y="300" width="48" height="48" rx="6" fill="#24292E"/>
<rect x="600" y="840" width="48" height="48" rx="6" fill="#24292E"/>
<rect x="900" y="360" width="48" height="48" rx="6" fill="#24292E"/>
<rect x="600" y="900" width="48" height="48" rx="6" fill="#24292E"/>
<rect x="900" y="540" width="48" height="48" rx="6" fill="#24292E"/>
<rect x="900" y="600" width="48" height="48" rx="6" fill="#24292E"/>
<rect x="240" y="840" width="48" height="48" rx="6" fill="#24292E"/>
<rect x="900" y="660" width="48" height="48" rx="6" fill="#005CC5"/>
<rect x="900" y="720" width="48" height="48" rx="6" fill="#032F62"/>
<rect x="900" y="780" width="48" height="48" rx="6" fill="#24292E"/>
<rect x="900" y="840" width="48" height="48" rx="6" fill="#24292E"/>
<rect x="660" y="120" width="48" height="48" rx="6" fill="#005CC5"/>
<rect x="360" y="780" width="48" height="48" rx="6" fill="#24292E"/>
<rect x="660" y="360" width="48" height="48" rx="6" fill="#032F62"/>
<rect x="360" y="900" width="48" height="48" rx="6" fill="#032F62"/>
<rect x="660" y="480" width="48" height="48" rx="6" fill="#24292E"/>
<rect x="660" y="540" width="48" height="48" rx="6" fill="#005CC5"/>
<rect x="660" y="660" width="48" height="48" rx="6" fill="#24292E"/>
<rect y="900" width="48" height="48" rx="6" fill="#24292E"/>
<rect x="660" y="720" width="48" height="48" rx="6" fill="#24292E"/>
<rect x="660" y="780" width="48" height="48" rx="6" fill="#032F62"/>
<rect x="960" width="48" height="48" rx="6" fill="#24292E"/>
<rect x="960" y="120" width="48" height="48" rx="6" fill="#24292E"/>
<rect x="960" y="180" width="48" height="48" rx="6" fill="#032F62"/>
<rect x="960" y="300" width="48" height="48" rx="6" fill="#24292E"/>
<rect x="960" y="420" width="48" height="48" rx="6" fill="#24292E"/>
<rect x="960" y="540" width="48" height="48" rx="6" fill="#005CC5"/>
<rect x="720" y="600" width="48" height="48" rx="6" fill="#24292E"/>
<rect x="300" y="840" width="48" height="48" rx="6" fill="#24292E"/>
<rect x="300" y="900" width="48" height="48" rx="6" fill="#24292E"/>
<rect x="960" y="720" width="48" height="48" rx="6" fill="#24292E"/>
<rect x="960" y="840" width="48" height="48" rx="6" fill="#24292E"/>
<rect x="960" y="900" width="48" height="48" rx="6" fill="#005CC5"/>
<rect x="720" y="180" width="48" height="48" rx="6" fill="#032F62"/>
<rect x="720" y="240" width="48" height="48" rx="6" fill="#24292E"/>
<rect x="420" y="780" width="48" height="48" rx="6" fill="#24292E"/>
<rect x="420" y="900" width="48" height="48" rx="6" fill="#032F62"/>
<rect x="60" y="840" width="48" height="48" rx="6" fill="#24292E"/>
<rect x="720" y="660" width="48" height="48" rx="6" fill="#032F62"/>
<rect x="720" y="720" width="48" height="48" rx="6" fill="#24292E"/>
<rect x="720" y="840" width="48" height="48" rx="6" fill="#24292E"/>
<rect x="720" y="900" width="48" height="48" rx="6" fill="#24292E"/>
<rect x="1020" y="60" width="48" height="48" rx="6" fill="#24292E"/>
<rect x="1020" y="180" width="48" height="48" rx="6" fill="#24292E"/>
<rect x="1020" y="240" width="48" height="48" rx="6" fill="#005CC5"/>
<rect x="1020" y="360" width="48" height="48" rx="6" fill="#032F62"/>
<rect x="1020" y="420" width="48" height="48" rx="6" fill="#24292E"/>
<rect x="1020" y="480" width="48" height="48" rx="6" fill="#24292E"/>
<rect x="1020" y="660" width="48" height="48" rx="6" fill="#24292E"/>
<rect x="1020" y="720" width="48" height="48" rx="6" fill="#24292E"/>
<rect x="1020" y="780" width="48" height="48" rx="6" fill="#005CC5"/>
<rect x="1020" y="900" width="48" height="48" rx="6" fill="#032F62"/>
<rect x="780" y="60" width="48" height="48" rx="6" fill="#005CC5"/>
<rect x="780" y="120" width="48" height="48" rx="6" fill="#24292E"/>
<rect x="480" y="780" width="48" height="48" rx="6" fill="#032F62"/>
<rect x="780" y="300" width="48" height="48" rx="6" fill="#24292E"/>
<rect x="480" y="840" width="48" height="48" rx="6" fill="#24292E"/>
<rect x="780" y="360" width="48" height="48" rx="6" fill="#24292E"/>
<rect x="480" y="900" width="48" height="48" rx="6" fill="#24292E"/>
<rect x="780" y="480" width="48" height="48" rx="6" fill="#032F62"/>
<rect x="780" y="540" width="48" height="48" rx="6" fill="#24292E"/>
<rect x="780" y="600" width="48" height="48" rx="6" fill="#032F62"/>
<rect x="780" y="660" width="48" height="48" rx="6" fill="#24292E"/>
<rect x="120" y="900" width="48" height="48" rx="6" fill="#24292E"/>
<rect x="780" y="780" width="48" height="48" rx="6" fill="#24292E"/>
<rect x="780" y="840" width="48" height="48" rx="6" fill="#032F62"/>
<rect x="1080" width="48" height="48" rx="6" fill="#005CC5"/>
<rect x="1080" y="60" width="48" height="48" rx="6" fill="#032F62"/>
<rect x="1080" y="120" width="48" height="48" rx="6" fill="#24292E"/>
<rect x="1080" y="240" width="48" height="48" rx="6" fill="#005CC5"/>
<rect x="1080" y="300" width="48" height="48" rx="6" fill="#24292E"/>
<rect x="1080" y="360" width="48" height="48" rx="6" fill="#005CC5"/>
<rect x="1080" y="480" width="48" height="48" rx="6" fill="#24292E"/>
<rect x="1080" y="600" width="48" height="48" rx="6" fill="#24292E"/>
<rect x="1080" y="660" width="48" height="48" rx="6" fill="#032F62"/>
<rect x="1080" y="900" width="48" height="48" rx="6" fill="#24292E"/>
<rect x="840" width="48" height="48" rx="6" fill="#24292E"/>
<rect x="840" y="60" width="48" height="48" rx="6" fill="#032F62"/>
<rect x="840" y="180" width="48" height="48" rx="6" fill="#24292E"/>
<rect x="540" y="720" width="48" height="48" rx="6" fill="#24292E"/>
<rect x="840" y="240" width="48" height="48" rx="6" fill="#24292E"/>
<rect x="540" y="780" width="48" height="48" rx="6" fill="#24292E"/>
<rect x="840" y="300" width="48" height="48" rx="6" fill="#005CC5"/>
<rect x="540" y="840" width="48" height="48" rx="6" fill="#005CC5"/>
<rect x="840" y="420" width="48" height="48" rx="6" fill="#24292E"/>
<rect x="840" y="480" width="48" height="48" rx="6" fill="#032F62"/>
<rect x="840" y="540" width="48" height="48" rx="6" fill="#24292E"/>
<rect x="840" y="660" width="48" height="48" rx="6" fill="#005CC5"/>
<rect x="180" y="900" width="48" height="48" rx="6" fill="#005CC5"/>
<rect x="840" y="720" width="48" height="48" rx="6" fill="#24292E"/>
<rect x="840" y="900" width="48" height="48" rx="6" fill="#005CC5"/>
</svg>
