<svg width="32" height="32" viewBox="0 0 230 230" fill="none" xmlns="http://www.w3.org/2000/svg">

<g clip-path="url(#clip0_1_2)">
<path d="M140.182 116.243C136.58 93.9034 116.578 77.989 94.283 79.3212C93.2651 79.3764 92.2473 79.4725 91.2295 79.6095C76.0949 81.5765 63.8403 91.1051 57.7422 103.933C56.926 98.1305 57.3009 92.2273 58.8452 86.5675C60.3895 80.9076 63.0721 75.6041 66.7371 70.9658C81.7693 51.7864 109.454 47.8148 128.576 62.0918C131.688 64.4112 134.456 67.1389 136.802 70.1975C146.808 83.2488 148.257 101.257 140.182 116.243Z" fill="white"/>
<path d="M126.561 165.24C120.079 171.171 111.855 174.973 103.046 176.11C79.1842 179.214 57.1934 162.324 53.9285 138.394C52.7615 130 54.0849 121.455 57.7419 113.773C63.8392 100.945 76.0943 91.4165 91.2295 89.4498C92.2473 89.3136 93.2652 89.2174 94.283 89.1613C84.0787 98.4396 78.4777 112.458 80.4932 127.237C81.5402 135.047 84.6951 142.445 89.6348 148.673C98.3068 159.577 111.939 166.117 126.561 165.24Z" fill="white"/>
<path d="M138.778 160.481C137.762 160.614 136.744 160.714 135.725 160.767C121.104 161.644 107.472 155.105 98.8011 144.199C115.383 148.26 133.837 142.436 145.138 128.024C146.725 126.006 148.133 123.859 149.348 121.609C157.425 106.624 155.977 88.6136 145.965 75.5612C161.549 80.5983 173.705 94.2226 176.07 111.535C179.335 135.466 162.641 157.386 138.778 160.481Z" fill="white"/>
</g>
<defs>
<clipPath id="clip0_1_2">
<rect width="122.956" height="122.956" fill="white" transform="translate(53.522 53.522)"/>
</clipPath>
</defs>
</svg>
