
<svg height="47" viewBox="0 0 325 68" fill="none" xmlns="http://www.w3.org/2000/svg">

<path d="M20.032 46.64C16.4053 46.64 12.864 45.9787 9.408 44.656C5.952 43.2907 2.88 41.3707 0.192 38.896L5.504 32.24C8.10667 34.544 10.6027 36.208 12.992 37.232C15.424 38.256 17.984 38.768 20.672 38.768C22.5493 38.768 24.1707 38.5547 25.536 38.128C26.9013 37.6587 27.9467 36.9973 28.672 36.144C29.44 35.2907 29.824 34.288 29.824 33.136C29.824 31.6 29.2693 30.4267 28.16 29.616C27.0507 28.7627 25.152 28.1013 22.464 27.632L13.568 26.096C9.77067 25.456 6.86933 24.112 4.864 22.064C2.90133 20.016 1.92 17.3707 1.92 14.128C1.92 11.3547 2.624 8.944 4.032 6.896C5.48267 4.848 7.50933 3.29066 10.112 2.224C12.7573 1.11466 15.8933 0.559998 19.52 0.559998C22.8053 0.559998 26.0693 1.11466 29.312 2.224C32.5973 3.33333 35.4987 4.86933 38.016 6.832L33.024 13.744C28.3307 10.16 23.616 8.368 18.88 8.368C17.216 8.368 15.7653 8.58133 14.528 9.008C13.2907 9.43467 12.3307 10.032 11.648 10.8C11.008 11.5253 10.688 12.4 10.688 13.424C10.688 14.7893 11.1787 15.856 12.16 16.624C13.1413 17.3493 14.784 17.904 17.088 18.288L25.536 19.696C30.016 20.4213 33.3653 21.8507 35.584 23.984C37.8027 26.0747 38.912 28.848 38.912 32.304C38.912 35.2053 38.144 37.744 36.608 39.92C35.072 42.0533 32.8747 43.7173 30.016 44.912C27.2 46.064 23.872 46.64 20.032 46.64ZM60.776 46.64C57.448 46.64 54.4187 45.872 51.688 44.336C49 42.8 46.8667 40.7307 45.288 38.128C43.7093 35.5253 42.92 32.6027 42.92 29.36C42.92 26.1173 43.6667 23.1947 45.16 20.592C46.696 17.9893 48.7653 15.92 51.368 14.384C53.9707 12.848 56.872 12.08 60.072 12.08C63.272 12.08 66.1093 12.8693 68.584 14.448C71.0587 16.0267 73 18.16 74.408 20.848C75.8587 23.536 76.584 26.5867 76.584 30V32.304H51.88C52.264 33.6267 52.8827 34.8213 53.736 35.888C54.632 36.9547 55.72 37.7867 57 38.384C58.3227 38.9813 59.7307 39.28 61.224 39.28C62.7173 39.28 64.0827 39.0453 65.32 38.576C66.6 38.1067 67.688 37.4453 68.584 36.592L74.344 41.84C72.296 43.504 70.184 44.72 68.008 45.488C65.8747 46.256 63.464 46.64 60.776 46.64ZM51.752 26.032H67.944C67.6453 24.7093 67.0907 23.5573 66.28 22.576C65.512 21.552 64.5733 20.7627 63.464 20.208C62.3973 19.6107 61.2027 19.312 59.88 19.312C58.5147 19.312 57.2773 19.5893 56.168 20.144C55.0587 20.6987 54.12 21.488 53.352 22.512C52.6267 23.4933 52.0933 24.6667 51.752 26.032ZM98.142 46.64C94.8567 46.64 91.8913 45.8933 89.246 44.4C86.6007 42.864 84.51 40.7947 82.974 38.192C81.438 35.5467 80.67 32.6027 80.67 29.36C80.67 26.0747 81.438 23.1307 82.974 20.528C84.51 17.9253 86.6007 15.856 89.246 14.32C91.8913 12.784 94.8567 12.016 98.142 12.016C100.787 12.016 103.305 12.528 105.694 13.552C108.126 14.576 110.217 16.048 111.966 17.968L106.59 23.664C105.353 22.2987 104.051 21.296 102.686 20.656C101.363 19.9733 99.9127 19.632 98.334 19.632C96.6273 19.632 95.0913 20.0587 93.726 20.912C92.4033 21.7653 91.3367 22.9173 90.526 24.368C89.758 25.8187 89.374 27.4827 89.374 29.36C89.374 31.152 89.758 32.7947 90.526 34.288C91.3367 35.7387 92.446 36.8907 93.854 37.744C95.262 38.5547 96.8193 38.96 98.526 38.96C100.019 38.96 101.406 38.6613 102.686 38.064C104.009 37.424 105.267 36.4853 106.462 35.248L111.71 40.752C110.003 42.5867 107.955 44.0373 105.566 45.104C103.177 46.128 100.702 46.64 98.142 46.64ZM129.197 46.64C126.637 46.64 124.354 46.0853 122.349 44.976C120.386 43.824 118.829 42.2453 117.677 40.24C116.567 38.2347 116.013 35.9307 116.013 33.328V12.656H124.781V32.048C124.781 34.1813 125.399 35.888 126.637 37.168C127.917 38.448 129.623 39.088 131.757 39.088C133.207 39.088 134.509 38.8107 135.661 38.256C136.855 37.6587 137.837 36.8267 138.605 35.76V12.656H147.373V46H138.605V43.312C136.045 45.5307 132.909 46.64 129.197 46.64ZM154.206 46V12.656H162.974V16.368C164.041 14.9173 165.321 13.808 166.814 13.04C168.307 12.272 169.993 11.888 171.87 11.888C173.491 11.9307 174.707 12.1867 175.518 12.656V20.336C174.878 20.0373 174.174 19.824 173.406 19.696C172.638 19.5253 171.849 19.44 171.038 19.44C169.331 19.44 167.774 19.8667 166.366 20.72C164.958 21.5733 163.827 22.7893 162.974 24.368V46H154.206ZM195.339 46.64C192.011 46.64 188.981 45.872 186.251 44.336C183.563 42.8 181.429 40.7307 179.851 38.128C178.272 35.5253 177.483 32.6027 177.483 29.36C177.483 26.1173 178.229 23.1947 179.723 20.592C181.259 17.9893 183.328 15.92 185.931 14.384C188.533 12.848 191.435 12.08 194.635 12.08C197.835 12.08 200.672 12.8693 203.147 14.448C205.621 16.0267 207.563 18.16 208.971 20.848C210.421 23.536 211.147 26.5867 211.147 30V32.304H186.443C186.827 33.6267 187.445 34.8213 188.299 35.888C189.195 36.9547 190.283 37.7867 191.562 38.384C192.885 38.9813 194.293 39.28 195.787 39.28C197.28 39.28 198.645 39.0453 199.883 38.576C201.163 38.1067 202.251 37.4453 203.147 36.592L208.907 41.84C206.859 43.504 204.747 44.72 202.571 45.488C200.437 46.256 198.027 46.64 195.339 46.64ZM186.315 26.032H202.507C202.208 24.7093 201.653 23.5573 200.843 22.576C200.075 21.552 199.136 20.7627 198.027 20.208C196.96 19.6107 195.765 19.312 194.443 19.312C193.077 19.312 191.84 19.5893 190.731 20.144C189.621 20.6987 188.683 21.488 187.915 22.512C187.189 23.4933 186.656 24.6667 186.315 26.032ZM217.991 46V1.2H237.191C240.135 1.2 242.695 1.73333 244.871 2.8C247.047 3.86666 248.732 5.36 249.927 7.28C251.164 9.2 251.783 11.4613 251.783 14.064C251.783 17.008 250.908 19.5467 249.159 21.68C247.452 23.7707 245.148 25.2427 242.247 26.096L252.295 46H246.854L237.255 26.736H222.919V46H217.991ZM222.919 22.576H236.871C239.9 22.576 242.311 21.808 244.103 20.272C245.937 18.736 246.854 16.6667 246.854 14.064C246.854 11.504 245.937 9.456 244.103 7.92C242.311 6.384 239.9 5.616 236.871 5.616H222.919V22.576ZM259.241 46V1.2H278.697C281.641 1.2 284.179 1.73333 286.312 2.8C288.488 3.86666 290.174 5.38133 291.369 7.344C292.563 9.264 293.161 11.5253 293.161 14.128C293.161 16.7307 292.563 19.0133 291.369 20.976C290.174 22.896 288.488 24.4107 286.312 25.52C284.137 26.5867 281.598 27.12 278.697 27.12H264.169V46H259.241ZM264.169 22.832H278.313C281.342 22.832 283.753 22.064 285.545 20.528C287.337 18.9493 288.233 16.8373 288.233 14.192C288.233 11.5467 287.337 9.456 285.545 7.92C283.753 6.384 281.342 5.616 278.313 5.616H264.169V22.832ZM321.798 46.704C318.555 46.704 315.526 46.128 312.71 44.976C309.894 43.7813 307.419 42.1387 305.286 40.048C303.153 37.9147 301.489 35.4613 300.294 32.688C299.142 29.872 298.566 26.8427 298.566 23.6C298.566 20.3573 299.142 17.3493 300.294 14.576C301.489 11.76 303.153 9.30666 305.286 7.216C307.419 5.08267 309.894 3.44 312.71 2.288C315.526 1.09333 318.555 0.495998 321.798 0.495998C324.145 0.495998 326.385 0.794665 328.518 1.392C330.694 1.94667 332.699 2.77866 334.534 3.888C336.411 4.95466 338.075 6.27733 339.526 7.856L336.262 11.312C334.513 9.30666 332.358 7.77066 329.798 6.704C327.238 5.59466 324.571 5.04 321.798 5.04C319.195 5.04 316.785 5.50933 314.566 6.448C312.347 7.38667 310.406 8.70933 308.742 10.416C307.121 12.08 305.841 14.0427 304.902 16.304C304.006 18.5227 303.558 20.9547 303.558 23.6C303.558 26.2027 304.006 28.6347 304.902 30.896C305.841 33.1573 307.142 35.1413 308.806 36.848C310.47 38.512 312.411 39.8133 314.63 40.752C316.891 41.6907 319.323 42.16 321.926 42.16C324.699 42.16 327.345 41.6267 329.862 40.56C332.379 39.4507 334.491 37.936 336.198 36.016L339.398 39.344C337.905 40.88 336.219 42.2027 334.342 43.312C332.507 44.4213 330.523 45.2747 328.39 45.872C326.257 46.4267 324.059 46.704 321.798 46.704Z" fill="black"/>
</svg>
